<svg width="260" height="220" viewBox="0 0 260 220" fill="none" xmlns="http://www.w3.org/2000/svg">
<rect x="120" y="40" width="20" height="20" fill="black"/>
<rect x="100" y="20" width="20" height="20" fill="black"/>
<rect x="80" width="20" height="20" fill="black"/>
<rect x="60" width="20" height="20" fill="black"/>
<rect x="40" width="20" height="20" fill="black"/>
<rect x="40" y="20" width="20" height="20" fill="#F30000"/>
<rect x="60" y="20" width="20" height="20" fill="#F30000"/>
<rect x="160" y="20" width="20" height="20" fill="#F30000"/>
<rect x="160" y="40" width="20" height="20" fill="#F30000"/>
<rect x="140" y="40" width="20" height="20" fill="#F30000"/>
<rect x="100" y="40" width="20" height="20" fill="#F30000"/>
<rect x="60" y="60" width="20" height="20" fill="#F30000"/>
<rect x="20" y="40" width="20" height="20" fill="#F30000"/>
<rect x="20" y="60" width="20" height="20" fill="#F30000"/>
<rect x="20" y="80" width="20" height="20" fill="#F30000"/>
<rect x="40" y="80" width="20" height="20" fill="#F30000"/>
<rect x="40" y="100" width="20" height="20" fill="#F30000"/>
<rect x="60" y="80" width="20" height="20" fill="#F30000"/>
<rect x="60" y="100" width="20" height="20" fill="#F30000"/>
<rect x="60" y="120" width="20" height="20" fill="#F30000"/>
<rect x="160" y="60" width="20" height="20" fill="#F30000"/>
<rect x="160" y="80" width="20" height="20" fill="#F30000"/>
<rect x="160" y="100" width="20" height="20" fill="#F30000"/>
<rect x="100" y="100" width="20" height="20" fill="#F30000"/>
<rect x="100" y="60" width="20" height="20" fill="#F30000"/>
<rect x="100" y="80" width="20" height="20" fill="#F30000"/>
<rect x="100" y="120" width="20" height="20" fill="#F30000"/>
<rect x="100" y="140" width="20" height="20" fill="#F30000"/>
<rect x="100" y="160" width="20" height="20" fill="#F30000"/>
<rect x="180" y="20" width="20" height="20" fill="#F30000"/>
<rect x="180" y="40" width="20" height="20" fill="#F30000"/>
<rect x="180" y="60" width="20" height="20" fill="#F30000"/>
<rect x="180" y="80" width="20" height="20" fill="#F30000"/>
<rect x="180" y="100" width="20" height="20" fill="#F30000"/>
<rect x="120" y="100" width="20" height="20" fill="#F30000"/>
<rect x="120" y="60" width="20" height="20" fill="#F30000"/>
<rect x="120" y="80" width="20" height="20" fill="#F30000"/>
<rect x="120" y="120" width="20" height="20" fill="#F30000"/>
<rect x="120" y="140" width="20" height="20" fill="#F30000"/>
<rect x="120" y="160" width="20" height="20" fill="#F30000"/>
<rect x="120" y="180" width="20" height="20" fill="#F30000"/>
<rect x="200" y="20" width="20" height="20" fill="#F30000"/>
<rect x="200" y="40" width="20" height="20" fill="#F30000"/>
<rect x="220" y="40" width="20" height="20" fill="#F30000"/>
<rect x="220" y="60" width="20" height="20" fill="#F30000"/>
<rect x="220" y="80" width="20" height="20" fill="#F30000"/>
<rect x="200" y="60" width="20" height="20" fill="#F30000"/>
<rect x="200" y="80" width="20" height="20" fill="#F30000"/>
<rect x="200" y="100" width="20" height="20" fill="#F30000"/>
<rect x="140" y="100" width="20" height="20" fill="#F30000"/>
<rect x="140" y="60" width="20" height="20" fill="#F30000"/>
<rect x="140" y="80" width="20" height="20" fill="#F30000"/>
<rect x="140" y="120" width="20" height="20" fill="#F30000"/>
<rect x="160" y="120" width="20" height="20" fill="#F30000"/>
<rect x="180" y="120" width="20" height="20" fill="#F30000"/>
<rect x="160" y="140" width="20" height="20" fill="#F30000"/>
<rect x="140" y="140" width="20" height="20" fill="#F30000"/>
<rect x="140" y="160" width="20" height="20" fill="#F30000"/>
<rect x="80" y="20" width="20" height="20" fill="#F30000"/>
<rect x="80" y="40" width="20" height="20" fill="#F30000"/>
<rect x="80" y="60" width="20" height="20" fill="#F30000"/>
<rect x="80" y="80" width="20" height="20" fill="#F30000"/>
<rect x="80" y="100" width="20" height="20" fill="#F30000"/>
<rect x="80" y="120" width="20" height="20" fill="#F30000"/>
<rect x="80" y="140" width="20" height="20" fill="#F30000"/>
<rect x="20" y="20" width="20" height="20" fill="black"/>
<rect y="40" width="20" height="20" fill="black"/>
<rect y="60" width="20" height="20" fill="black"/>
<rect y="80" width="20" height="20" fill="black"/>
<rect x="20" y="100" width="20" height="20" fill="black"/>
<rect x="40" y="120" width="20" height="20" fill="black"/>
<rect x="60" y="140" width="20" height="20" fill="black"/>
<rect x="80" y="160" width="20" height="20" fill="black"/>
<rect x="120" y="200" width="20" height="20" fill="black"/>
<rect x="100" y="180" width="20" height="20" fill="black"/>
<rect width="20" height="20" transform="matrix(-1 0 0 1 160 20)" fill="black"/>
<rect width="20" height="20" transform="matrix(-1 0 0 1 180 0)" fill="black"/>
<rect width="20" height="20" transform="matrix(-1 0 0 1 200 0)" fill="black"/>
<rect width="20" height="20" transform="matrix(-1 0 0 1 220 0)" fill="black"/>
<rect width="20" height="20" transform="matrix(-1 0 0 1 240 20)" fill="black"/>
<rect width="20" height="20" transform="matrix(-1 0 0 1 260 40)" fill="black"/>
<rect width="20" height="20" transform="matrix(-1 0 0 1 260 60)" fill="black"/>
<rect width="20" height="20" transform="matrix(-1 0 0 1 260 80)" fill="black"/>
<rect width="20" height="20" transform="matrix(-1 0 0 1 240 100)" fill="black"/>
<rect width="20" height="20" transform="matrix(-1 0 0 1 220 120)" fill="black"/>
<rect width="20" height="20" transform="matrix(-1 0 0 1 200 140)" fill="black"/>
<rect width="20" height="20" transform="matrix(-1 0 0 1 180 160)" fill="black"/>
<rect width="20" height="20" transform="matrix(-1 0 0 1 160 180)" fill="black"/>
</svg>
