<svg width="208" height="81" viewBox="0 0 208 81" fill="none" xmlns="http://www.w3.org/2000/svg">
<path d="M97.895 80.4769H94.4757V65.8445C94.4757 62.794 93.9897 60.548 93.0175 59.1066C92.0454 57.6651 90.6039 56.9444 88.6932 56.9444C86.7154 56.9444 84.9387 57.6484 83.3632 59.0563C81.8211 60.4642 80.7317 62.2744 80.0948 64.4869V80.4769H76.6755V65.8445C76.6755 62.7605 76.2062 60.5145 75.2676 59.1066C74.329 57.6651 72.8875 56.9444 70.9432 56.9444C68.9989 56.9444 67.239 57.6316 65.6635 59.006C64.0879 60.3804 62.9817 62.1906 62.3448 64.4366V80.4769H58.9255V54.2794H62.0431V60.2128C63.1493 58.168 64.5573 56.5924 66.2669 55.4862C68.01 54.38 69.9376 53.8268 72.0494 53.8268C74.2284 53.8268 75.9883 54.447 77.3292 55.6873C78.6701 56.9276 79.4914 58.5535 79.7931 60.5648C80.9999 58.3523 82.4413 56.6762 84.1174 55.5365C85.827 54.3967 87.7546 53.8268 89.9 53.8268C91.375 53.8268 92.6153 54.095 93.6209 54.6314C94.6601 55.1677 95.4814 55.9387 96.0848 56.9444C96.7217 57.9165 97.1743 59.1066 97.4425 60.5145C97.7442 61.8889 97.895 63.4309 97.895 65.1406V80.4769Z" fill="black"/>
<path d="M103.021 72.9345C103.021 71.2919 103.49 69.8839 104.429 68.7107C105.368 67.5039 106.658 66.582 108.301 65.9451C109.977 65.2747 111.905 64.9394 114.083 64.9394C115.357 64.9394 116.681 65.04 118.056 65.2411C119.43 65.4423 120.654 65.744 121.726 66.1462V63.9338C121.726 61.7213 121.073 59.9614 119.765 58.654C118.458 57.3467 116.648 56.693 114.335 56.693C112.927 56.693 111.536 56.9612 110.161 57.4975C108.82 58.0004 107.413 58.7546 105.938 59.7603L104.63 57.3467C106.34 56.1734 108.016 55.3018 109.659 54.7319C111.301 54.1285 112.977 53.8268 114.687 53.8268C117.905 53.8268 120.453 54.7487 122.33 56.5924C124.207 58.4361 125.146 60.9838 125.146 64.2355V76.3537C125.146 76.823 125.246 77.175 125.447 77.4097C125.649 77.6108 125.967 77.7281 126.403 77.7616V80.4769C126.034 80.5105 125.716 80.544 125.447 80.5775C125.179 80.611 124.978 80.611 124.844 80.5775C124.006 80.544 123.369 80.2758 122.933 79.773C122.497 79.2701 122.263 78.7338 122.229 78.1639L122.179 76.2532C121.006 77.7616 119.48 78.9349 117.603 79.773C115.726 80.5775 113.815 80.9798 111.871 80.9798C110.195 80.9798 108.67 80.6278 107.295 79.9238C105.954 79.1863 104.898 78.2142 104.127 77.0074C103.39 75.7671 103.021 74.4094 103.021 72.9345ZM120.57 74.9458C120.939 74.4765 121.224 74.0239 121.425 73.5881C121.626 73.1524 121.726 72.7668 121.726 72.4316V68.6101C120.587 68.1743 119.397 67.8391 118.156 67.6044C116.95 67.3698 115.726 67.2525 114.486 67.2525C112.039 67.2525 110.061 67.7385 108.552 68.7107C107.044 69.6828 106.29 71.0069 106.29 72.683C106.29 73.6552 106.541 74.577 107.044 75.4486C107.547 76.2867 108.284 76.9906 109.256 77.5605C110.228 78.0969 111.368 78.365 112.676 78.365C114.318 78.365 115.843 78.0466 117.251 77.4097C118.693 76.7727 119.799 75.9515 120.57 74.9458Z" fill="black"/>
<path d="M141.132 80.9798C138.986 80.9798 136.992 80.6278 135.148 79.9238C133.304 79.2199 131.712 78.1472 130.371 76.7057L131.779 74.2921C133.254 75.6665 134.729 76.6722 136.204 77.3091C137.713 77.9125 139.305 78.2142 140.981 78.2142C143.026 78.2142 144.685 77.8119 145.959 77.0074C147.233 76.1693 147.87 74.9793 147.87 73.4373C147.87 72.3981 147.551 71.6103 146.914 71.074C146.311 70.5041 145.423 70.0516 144.249 69.7163C143.11 69.3476 141.735 68.9621 140.126 68.5598C138.316 68.057 136.791 67.5374 135.55 67.001C134.344 66.4312 133.422 65.7272 132.785 64.8891C132.181 64.0176 131.88 62.8946 131.88 61.5202C131.88 59.8105 132.299 58.4026 133.137 57.2964C134.008 56.1566 135.182 55.3018 136.657 54.7319C138.165 54.1285 139.841 53.8268 141.685 53.8268C143.696 53.8268 145.473 54.1453 147.015 54.7822C148.557 55.4191 149.814 56.3075 150.786 57.4472L149.127 59.7603C148.188 58.6876 147.065 57.8998 145.758 57.397C144.484 56.8606 143.059 56.5924 141.484 56.5924C140.411 56.5924 139.389 56.7433 138.417 57.045C137.444 57.3131 136.64 57.7825 136.003 58.4529C135.4 59.0898 135.098 59.9782 135.098 61.1179C135.098 62.0565 135.333 62.794 135.802 63.3304C136.271 63.8332 136.975 64.269 137.914 64.6377C138.852 64.973 140.009 65.3417 141.383 65.744C143.361 66.2803 145.087 66.8334 146.562 67.4033C148.037 67.9397 149.177 68.6436 149.982 69.5152C150.786 70.3868 151.188 71.6103 151.188 73.1859C151.188 75.633 150.267 77.5438 148.423 78.9182C146.579 80.2926 144.149 80.9798 141.132 80.9798Z" fill="black"/>
<path d="M178.864 80.4769H175.445V65.8445C175.445 62.8946 174.925 60.6821 173.886 59.2071C172.847 57.6987 171.355 56.9444 169.411 56.9444C168.137 56.9444 166.863 57.2796 165.59 57.9501C164.349 58.587 163.243 59.4753 162.271 60.6151C161.332 61.7213 160.662 62.9951 160.259 64.4366V80.4769H156.84V47H160.259V60.2128C161.299 58.2685 162.74 56.7265 164.584 55.5868C166.461 54.4135 168.456 53.8268 170.568 53.8268C172.076 53.8268 173.35 54.095 174.389 54.6314C175.462 55.1677 176.317 55.9555 176.954 56.9947C177.624 58.0004 178.11 59.1904 178.412 60.5648C178.713 61.9057 178.864 63.4309 178.864 65.1406V80.4769Z" fill="black"/>
<path d="M184.044 72.9345C184.044 71.2919 184.513 69.8839 185.452 68.7107C186.39 67.5039 187.681 66.582 189.324 65.9451C191 65.2747 192.927 64.9394 195.106 64.9394C196.38 64.9394 197.704 65.04 199.079 65.2411C200.453 65.4423 201.676 65.744 202.749 66.1462V63.9338C202.749 61.7213 202.095 59.9614 200.788 58.654C199.481 57.3467 197.671 56.693 195.358 56.693C193.95 56.693 192.558 56.9612 191.184 57.4975C189.843 58.0004 188.435 58.7546 186.96 59.7603L185.653 57.3467C187.363 56.1734 189.039 55.3018 190.681 54.7319C192.324 54.1285 194 53.8268 195.71 53.8268C198.928 53.8268 201.475 54.7487 203.353 56.5924C205.23 58.4361 206.168 60.9838 206.168 64.2355V76.3537C206.168 76.823 206.269 77.175 206.47 77.4097C206.671 77.6108 206.99 77.7281 207.426 77.7616V80.4769C207.057 80.5105 206.738 80.544 206.47 80.5775C206.202 80.611 206.001 80.611 205.867 80.5775C205.029 80.544 204.392 80.2758 203.956 79.773C203.52 79.2701 203.286 78.7338 203.252 78.1639L203.202 76.2532C202.028 77.7616 200.503 78.9349 198.626 79.773C196.749 80.5775 194.838 80.9798 192.894 80.9798C191.218 80.9798 189.692 80.6278 188.318 79.9238C186.977 79.1863 185.921 78.2142 185.15 77.0074C184.413 75.7671 184.044 74.4094 184.044 72.9345ZM201.593 74.9458C201.961 74.4765 202.246 74.0239 202.447 73.5881C202.649 73.1524 202.749 72.7668 202.749 72.4316V68.6101C201.609 68.1743 200.419 67.8391 199.179 67.6044C197.972 67.3698 196.749 67.2525 195.508 67.2525C193.061 67.2525 191.083 67.7385 189.575 68.7107C188.066 69.6828 187.312 71.0069 187.312 72.683C187.312 73.6552 187.564 74.577 188.066 75.4486C188.569 76.2867 189.307 76.9906 190.279 77.5605C191.251 78.0969 192.391 78.365 193.698 78.365C195.341 78.365 196.866 78.0466 198.274 77.4097C199.715 76.7727 200.822 75.9515 201.593 74.9458Z" fill="black"/>
<path d="M7.74361 26.3987C12.9731 18.4539 24.3371 1.40793 34.1423 1.40793C37.2598 1.40793 39.1706 3.16784 39.1706 5.12888C39.1706 5.73228 39.0197 6.2854 38.718 6.8888C39.5226 7.64304 40.126 8.69899 40.126 9.65437C40.126 10.6098 38.8689 13.325 38.4666 14.4313C35.7513 21.9738 33.2372 29.6671 30.371 37.1593C30.3208 37.2096 28.1083 43.495 27.354 44.1486C26.2478 45.1543 24.0856 45.808 22.0743 45.808C19.9624 45.808 17.4483 44.9532 17.4483 42.5899C17.4483 41.1316 18.6048 38.6678 19.007 37.461C17.2974 38.4164 15.6884 39.7237 13.6267 39.7237C13.4256 39.774 13.1742 39.9751 13.0233 40.0757C10.8612 42.8916 8.09559 46.3108 4.1735 46.3108C1.60906 46.3108 0 44.5509 0 42.0367C0 41.4333 0.100566 40.7797 0.301699 40.0757C1.86048 35.0977 4.87747 30.723 7.74361 26.3987ZM34.092 3.92209C32.6338 3.92209 31.1253 4.67634 29.6168 5.27974C19.7613 13.7273 11.4143 23.9348 5.12888 35.3491C5.12888 35.3491 5.0786 35.3994 5.0786 35.3491C4.67634 36.053 4.37464 36.8073 4.02265 37.5113C3.72096 38.1147 2.46388 40.5282 2.46388 42.1876C2.46388 43.1933 2.91642 43.8469 4.27407 43.8469C7.44191 43.8469 9.75494 39.774 11.4646 37.9638C12.6714 36.6564 14.8838 36.9581 16.7443 35.8519C18.4539 34.796 20.8172 33.3378 22.1246 35.7513C21.9235 36.5559 21.5715 37.3101 21.4206 38.1147C21.1189 39.6231 20.3144 40.8802 19.9624 42.3384C19.9624 43.2435 21.7726 43.2938 22.5269 43.2938C23.7839 43.2938 25.3427 43.0424 25.6947 42.1876C25.745 41.9865 26.0467 41.1819 26.1975 40.8802L26.0467 41.1819C26.0467 40.7294 26.5495 40.0254 26.8009 39.3717L28.6614 34.5445C30.6225 29.4659 32.2818 24.2868 34.1423 19.1076L37.2096 10.5595C37.4107 9.80522 37.461 9.75494 37.109 8.90013C36.9079 8.64871 36.7067 8.44758 36.5559 8.34701C36.4553 5.9837 36.6564 5.63172 36.757 5.27974C36.6564 4.22379 34.9468 3.92209 34.092 3.92209ZM20.6664 23.3817C21.4206 22.2755 21.8732 21.0184 22.5771 19.9121C23.2811 18.9065 25.6444 15.2861 27.0524 16.342C27.5552 17.0963 27.8569 17.2471 27.9574 18.0014C26.3987 22.376 24.7393 26.7004 23.5325 31.1756C22.8788 30.5722 22.2252 32.4327 16.1912 31.4773L20.6664 23.3817ZM22.1749 28.9128L25.041 21.0184C23.432 21.1692 20.2641 28.0077 19.3087 29.6168C19.7613 29.6168 21.6721 29.0134 22.1749 28.9128Z" fill="black"/>
<path d="M38.8316 45.5063C34.105 45.5063 32.4456 43.2435 32.4456 38.2655C32.4456 35.6508 34.9095 31.6784 35.7643 30.0693C38.379 25.1919 41.1949 20.3647 44.2119 15.6884C46.2232 12.6211 48.3854 9.55381 50.3464 6.38597V6.33568C52.408 3.26841 56.5313 1.70963 60.2522 1.70963C62.5652 1.70963 65.18 3.21812 65.18 5.63172C65.18 6.13455 65.0794 6.73795 64.7274 7.1905C61.6601 14.029 57.1849 19.9121 52.8606 25.9461C50.799 28.8123 48.8882 31.5778 46.9775 34.4943L47.9328 34.2429C49.2905 33.8909 50.5978 33.5892 51.8549 33.5892C52.6595 33.5892 53.5143 33.74 54.3691 34.092L55.3245 35.2988C55.3245 35.4999 55.3245 35.7011 55.2239 35.9022C55.5256 37.0084 56.833 37.5615 56.833 38.9192C56.833 39.9751 56.2798 41.0311 55.6764 41.8356C53.112 45.3554 48.7374 45.7074 44.5639 45.7074C43.0051 45.7074 41.3457 45.5063 39.7367 45.5063H38.8316ZM35.5129 41.1819C35.6135 42.791 36.3677 43.0927 37.4236 43.0927C38.027 43.0927 38.731 42.9921 39.435 42.9921C40.5915 42.9921 49.6425 43.9978 52.408 41.6848C53.464 40.8299 55.4753 36.053 51.9555 36.053C49.5419 36.053 47.2792 37.3604 44.8153 37.3604L43.8096 36.7067C43.6085 36.3547 43.5582 36.053 43.5582 35.7011C43.5582 34.6451 44.4633 33.6395 45.5192 32.0807L47.2791 29.4659C52.5589 21.9235 58.5426 14.733 62.4144 6.23512C62.4144 6.08427 62.4647 5.78257 62.4647 5.53115C62.4647 3.97237 60.4031 4.1735 59.9505 4.1735C57.2352 4.1735 54.0171 5.53115 52.4583 7.64304H52.5086C50.5476 10.8612 48.3351 13.9284 46.3238 17.046C43.3068 21.6721 40.5412 26.449 37.9265 31.2761C36.6694 33.5892 34.9598 37.0587 34.9598 38.2152C34.9598 38.3661 34.9598 38.4666 35.0101 38.5169C35.0101 38.5672 34.9598 38.5672 34.9598 38.5672C35.362 39.422 35.5129 40.2768 35.5129 41.1819Z" fill="black"/>
<path d="M91.5586 1.2068C92.4637 1.2068 93.3688 1.30736 94.2739 1.45821C96.9389 1.55878 97.9446 3.01699 97.9446 4.82719C97.9446 8.44758 94.475 11.8668 90.8546 12.9228C88.8433 13.5262 86.3291 13.5765 84.6698 14.9844C83.463 15.9901 82.0048 18.2025 81.2003 19.711H81.8037C82.4573 19.711 84.2173 19.2082 85.8263 19.2082C86.9325 19.2082 88.1393 19.5602 88.1393 20.9681C88.1393 21.6721 87.6868 22.3257 87.3348 22.9291C85.1726 26.7507 81.7031 28.7117 76.8256 29.0134C75.468 30.6727 74.2109 32.4829 73.3058 34.444C74.1103 34.5948 75.0154 34.6451 75.8702 34.6451C77.5296 34.6451 78.9375 34.2429 80.5969 34.2429C81.8037 34.2429 82.9602 34.9468 82.9602 36.3547V36.5056C82.6082 37.4107 83.815 38.3661 83.815 39.07C83.815 41.8356 78.9878 44.4001 77.0268 45.1543C74.4623 45.8583 70.8922 46.4617 67.6238 46.4617C64.0034 46.4617 58.774 45.6571 58.774 41.9865C58.774 41.6848 58.8242 41.3328 58.9751 40.9305C61.0367 31.1756 65.1096 23.2308 70.6911 14.9341C71.1939 14.1799 73.0041 12.1182 73.4064 10.66C73.8589 9.05097 73.9595 7.08993 75.2166 5.78257C76.6748 4.22379 79.1889 3.87181 81.15 3.26841C84.4184 2.26274 88.0388 1.2068 91.5586 1.2068ZM94.123 3.97237C93.2682 3.82152 92.4134 3.72096 91.5586 3.72096C88.2902 3.72096 84.9212 4.7769 81.9545 5.63172C80.9488 5.93342 78.0827 6.53682 77.3285 7.1905C75.9708 8.34701 76.0714 11.364 75.0657 12.9731C69.786 21.2195 64.4057 28.5609 62.0424 38.6175C61.791 39.6734 61.791 40.8299 61.3384 41.735C61.5395 44.0481 66.1656 43.9475 68.0261 43.9475C72.803 43.9475 78.8369 42.8916 81.0494 39.3717C80.6471 39.07 80.2449 38.3158 80.2449 37.813C80.2449 37.5113 80.2952 37.109 80.3454 36.8073C78.8872 37.0587 77.3787 37.109 75.9205 37.109C74.1103 37.109 70.5402 37.2598 70.5402 34.8462C70.5402 33.5892 71.8979 31.6784 72.451 30.8236C73.3561 29.4157 74.7137 27.1026 76.0714 26.5495C79.5912 26.1975 82.4071 25.5941 84.4184 22.8286L84.9715 21.8732C83.7647 21.9738 82.6082 22.2252 81.4517 22.2252C80.5969 22.2252 79.7923 22.1246 78.4347 19.9624C79.7421 17.1968 81.4014 13.7776 84.2675 12.2691C86.4297 11.1126 88.9942 11.1126 91.2066 10.1069C93.6202 9.00069 95.531 6.33568 95.531 4.52549V4.32436C95.4807 4.32436 95.4807 4.37464 95.4807 4.47521C95.179 4.07294 94.6259 3.97237 94.123 3.97237Z" fill="black"/>
<path d="M109.37 46.7131C105.045 46.7131 103.788 41.0311 103.185 36.8576L101.727 38.7181C98.6595 42.5396 95.4917 46.7131 89.9102 46.7131C87.1447 46.7131 85.5859 45.6571 85.5859 43.0927C85.5859 40.9808 87.0441 37.6621 88.7537 36.6564H88.804L88.5023 36.8576H88.452C89.4074 36.2039 90.1617 34.9468 90.9159 34.092L94.0838 30.4213C95.19 29.114 96.5476 28.058 97.7041 26.8512C98.6595 25.9461 100.017 24.4376 101.023 23.5828C100.57 21.7726 99.9669 17.75 99.9669 15.8392C99.9669 13.4256 100.269 11.0623 100.671 8.64871C100.671 5.682 104.794 2.06161 107.912 2.06161C110.878 2.06161 111.23 6.2854 111.23 9.45324V12.9228C112.689 11.364 114.096 9.65437 115.655 8.09559V7.99503C115.655 3.51983 122.745 0 127.371 0C130.69 0 133.204 1.55878 133.204 4.07294C133.204 9.15154 119.527 19.1579 116.158 22.8789L115.102 24.0354C114.901 24.2365 114.549 24.3873 114.549 24.5885C114.549 29.8682 116.761 34.4943 116.761 39.9751C116.761 42.2882 116.108 44.5006 113.443 44.5006C113.191 45.9588 111.18 46.7131 109.37 46.7131ZM104.04 33.0863C105.649 35.8519 106.051 45.9085 110.979 43.7967C111.029 43.7464 111.079 43.6961 111.079 43.1933C111.482 42.5899 111.934 42.087 112.739 41.9865C113.644 41.9865 114.197 42.087 114.197 40.3774C114.197 34.1926 112.387 29.9185 111.985 24.3873L112.387 23.2811C114.147 21.4709 115.555 19.2082 117.516 17.6494C121.79 13.4759 126.818 9.95607 130.438 5.17917C130.539 4.92775 130.64 4.62605 130.69 4.32436C130.589 2.86614 129.081 2.46388 127.723 2.46388C124.103 2.46388 117.516 5.0786 118.019 9.40296L111.079 16.7443C110.325 16.5935 109.571 16.3923 108.817 16.1912C108.716 12.6714 108.968 6.13455 107.912 4.67634C107.861 4.67634 107.71 4.62605 107.66 4.62605C106.303 4.92775 103.587 6.48653 103.135 8.44758C103.135 9.95607 102.632 13.0233 102.531 13.9787C102.481 14.4816 102.481 14.9844 102.481 15.4369C102.481 18.2528 103.034 20.9178 103.788 23.6331C103.034 25.5439 101.073 27.0524 99.5646 28.5106C97.7544 30.2705 96.0448 31.9298 94.4357 33.7903C93.0278 35.4999 90.7651 38.4164 90.0611 38.8186C89.508 39.422 87.9995 41.0311 87.9995 43.0424C87.9995 44.0984 88.804 44.2492 89.9102 44.2492C96.1454 44.2492 99.0618 37.2096 104.04 33.0863ZM88.8543 36.6062L88.804 36.6564C88.804 36.6062 88.8543 36.6062 88.8543 36.6062Z" fill="black"/>
</svg>
 