<svg width="939" height="948" viewBox="0 0 939 948" fill="none" xmlns="http://www.w3.org/2000/svg">
<rect width="149.589" height="45.1042" transform="translate(675.249 773.4) rotate(-9.79858)" fill="black"/>
<path d="M694.99 794.025L701.077 799.944L698.145 800.451L692.485 794.733L692.053 794.807L693.176 801.309L690.779 801.723L688.036 785.839L690.845 785.354C692.943 784.992 694.527 785.124 695.596 785.752C696.776 786.452 697.491 787.522 697.739 788.963C697.934 790.087 697.778 791.11 697.273 792.031C696.769 792.951 696.008 793.616 694.99 794.025ZM691.693 792.719L692.454 792.587C694.724 792.195 695.709 791.132 695.41 789.397C695.129 787.771 693.884 787.149 691.676 787.531L690.822 787.678L691.693 792.719ZM711.035 793.627L703.855 794.867C704.059 795.679 704.439 796.288 704.997 796.693C705.553 797.091 706.201 797.227 706.942 797.099C707.518 796.999 707.971 796.78 708.301 796.44C708.624 796.102 708.958 795.522 709.303 794.699L711.446 795.452C711.233 796.018 710.991 796.516 710.718 796.944C710.445 797.366 710.137 797.73 709.795 798.036C709.451 798.336 709.066 798.579 708.639 798.765C708.212 798.952 707.738 799.091 707.217 799.181C705.722 799.439 704.438 799.166 703.367 798.362C702.295 797.552 701.621 796.347 701.345 794.749C701.071 793.165 701.289 791.807 701.997 790.674C702.715 789.555 703.804 788.869 705.265 788.616C706.739 788.362 707.987 788.63 709.006 789.422C710.018 790.207 710.666 791.427 710.951 793.08L711.035 793.627ZM708.332 792.144C707.797 790.965 706.912 790.483 705.677 790.696C705.396 790.744 705.14 790.834 704.908 790.966C704.675 791.091 704.47 791.254 704.293 791.454C704.121 791.646 703.983 791.868 703.878 792.119C703.773 792.37 703.708 792.646 703.682 792.947L708.332 792.144ZM718.733 779.002L721.058 778.6L724.059 795.975L721.734 796.377L721.552 795.327C720.794 796.377 719.839 797.001 718.687 797.2C717.315 797.436 716.09 797.132 715.012 796.288C713.937 795.421 713.268 794.223 713.004 792.693C712.745 791.198 712.979 789.873 713.705 788.716C714.422 787.554 715.456 786.856 716.807 786.623C717.98 786.42 719.112 786.719 720.204 787.519L718.733 779.002ZM715.37 792.285C715.536 793.245 715.928 793.982 716.546 794.497C717.18 795.016 717.898 795.206 718.7 795.068C719.557 794.92 720.199 794.505 720.625 793.824C721.048 793.123 721.178 792.302 721.016 791.363C720.854 790.423 720.456 789.694 719.822 789.174C719.191 788.669 718.454 788.489 717.61 788.635C716.815 788.772 716.202 789.189 715.771 789.885C715.348 790.586 715.215 791.386 715.37 792.285ZM733.924 794.271L731.181 778.388L734.514 777.812C736.112 777.536 737.401 777.476 738.381 777.632C739.429 777.769 740.422 778.137 741.359 778.738C743.256 779.95 744.415 781.774 744.836 784.208C745.257 786.65 744.744 788.772 743.297 790.576C742.57 791.479 741.763 792.158 740.874 792.616C740.047 793.062 738.828 793.425 737.216 793.703L733.924 794.271ZM735.932 791.605L737.012 791.418C738.089 791.232 738.964 790.964 739.638 790.615C740.31 790.252 740.889 789.76 741.375 789.139C742.369 787.858 742.716 786.354 742.418 784.626C742.117 782.884 741.29 781.572 739.937 780.69C738.721 779.904 737.091 779.687 735.047 780.04L733.967 780.227L735.932 791.605ZM747.438 786.704C747.188 785.257 747.494 783.936 748.354 782.743C749.214 781.549 750.388 780.823 751.877 780.566C753.372 780.308 754.729 780.6 755.948 781.442C757.153 782.286 757.884 783.452 758.141 784.94C758.4 786.442 758.1 787.79 757.24 788.984C756.371 790.172 755.179 790.897 753.664 791.159C752.162 791.418 750.814 791.121 749.622 790.268C748.431 789.428 747.704 788.24 747.438 786.704ZM749.811 786.336C749.984 787.338 750.389 788.084 751.024 788.574C751.675 789.069 752.449 789.239 753.348 789.084C754.253 788.928 754.926 788.511 755.367 787.835C755.808 787.158 755.945 786.333 755.777 785.359C755.609 784.385 755.203 783.654 754.561 783.164C753.91 782.669 753.136 782.499 752.237 782.655C751.353 782.807 750.687 783.226 750.24 783.911C749.793 784.595 749.65 785.404 749.811 786.336ZM760.112 784.515C759.862 783.068 760.168 781.748 761.028 780.554C761.888 779.36 763.062 778.634 764.551 778.377C766.046 778.119 767.403 778.411 768.622 779.253C769.827 780.097 770.558 781.263 770.815 782.751C771.074 784.253 770.774 785.601 769.914 786.795C769.045 787.983 767.853 788.708 766.338 788.97C764.836 789.23 763.488 788.932 762.296 788.079C761.105 787.239 760.378 786.051 760.112 784.515ZM762.485 784.148C762.658 785.149 763.063 785.895 763.698 786.385C764.349 786.88 765.123 787.05 766.022 786.895C766.927 786.739 767.6 786.322 768.041 785.646C768.482 784.969 768.619 784.144 768.451 783.17C768.282 782.197 767.877 781.465 767.235 780.976C766.584 780.481 765.81 780.311 764.911 780.466C764.027 780.619 763.361 781.037 762.914 781.722C762.467 782.406 762.324 783.215 762.485 784.148ZM772.407 777.307L774.721 776.907L774.876 777.802C775.224 777.283 775.548 776.912 775.849 776.691C776.156 776.461 776.539 776.307 776.998 776.228C777.609 776.122 778.281 776.211 779.015 776.494L778.321 778.796C777.828 778.556 777.372 778.473 776.953 778.545C775.692 778.763 775.225 779.825 775.554 781.732L776.452 786.927L774.137 787.326L772.407 777.307Z" fill="white"/>
<path d="M818.066 771.621L806.482 767.359L808.583 779.522L818.066 771.621ZM784.539 778.496L808.768 774.312L808.404 772.205L784.175 776.39L784.539 778.496Z" fill="white"/>
<rect width="128.76" height="51.3126" transform="translate(331.545 238.46) rotate(-11.5229)" fill="black"/>
<path d="M350.135 254.902L352.898 268.456L350.515 268.942L347.752 255.388L344.12 256.128L343.663 253.888L353.299 251.924L353.756 254.164L350.135 254.902ZM354.685 250.096L356.986 249.627L358.646 257.769C359.315 256.866 360.143 256.314 361.132 256.112C362.257 255.883 363.232 256.064 364.055 256.656C364.758 257.173 365.25 258.128 365.534 259.519L366.779 265.626L364.478 266.095L363.276 260.203C363.114 259.405 362.853 258.858 362.494 258.562C362.141 258.257 361.651 258.169 361.023 258.297C360.219 258.461 359.703 258.825 359.477 259.39C359.26 259.96 359.276 260.859 359.526 262.086L360.509 266.904L358.207 267.373L354.685 250.096ZM377.873 258.74L370.733 260.196C370.961 261.002 371.36 261.599 371.929 261.987C372.497 262.368 373.149 262.484 373.886 262.334C374.458 262.217 374.905 261.984 375.224 261.635C375.537 261.287 375.853 260.697 376.174 259.864L378.338 260.552C378.142 261.125 377.915 261.63 377.656 262.066C377.395 262.495 377.099 262.868 376.765 263.185C376.431 263.495 376.053 263.749 375.632 263.949C375.211 264.148 374.741 264.301 374.223 264.407C372.736 264.71 371.446 264.476 370.351 263.704C369.255 262.926 368.544 261.743 368.221 260.154C367.899 258.579 368.076 257.214 368.75 256.061C369.434 254.92 370.502 254.202 371.954 253.906C373.42 253.607 374.675 253.838 375.718 254.598C376.753 255.353 377.437 256.552 377.773 258.196L377.873 258.74ZM375.126 257.34C374.555 256.178 373.656 255.722 372.429 255.972C372.149 256.029 371.896 256.127 371.668 256.265C371.439 256.397 371.239 256.566 371.068 256.771C370.902 256.968 370.771 257.194 370.674 257.448C370.576 257.703 370.519 257.981 370.503 258.282L375.126 257.34Z" fill="white"/>
<path d="M387.518 235.777L383.606 247.485L395.701 245.019L387.518 235.777ZM395.399 269.083L390.487 244.991L388.392 245.418L393.304 269.51L395.399 269.083Z" fill="white"/>
<path d="M406.994 257.427L403.775 241.633L407.089 240.958C408.678 240.634 409.964 240.535 410.949 240.661C412 240.766 413.004 241.105 413.958 241.677C415.891 242.832 417.105 244.619 417.598 247.04C418.093 249.468 417.644 251.605 416.252 253.452C415.553 254.375 414.766 255.079 413.891 255.563C413.078 256.034 411.87 256.433 410.268 256.76L406.994 257.427ZM408.921 254.701L409.995 254.482C411.066 254.264 411.933 253.97 412.596 253.6C413.257 253.217 413.821 252.708 414.288 252.073C415.242 250.763 415.545 249.249 415.194 247.53C414.841 245.798 413.975 244.512 412.596 243.67C411.357 242.922 409.721 242.754 407.689 243.169L406.615 243.388L408.921 254.701ZM429.944 248.125L422.804 249.58C423.032 250.386 423.431 250.983 424 251.371C424.568 251.753 425.22 251.868 425.956 251.718C426.529 251.601 426.975 251.368 427.295 251.019C427.608 250.671 427.924 250.081 428.244 249.249L430.409 249.937C430.213 250.509 429.986 251.014 429.727 251.45C429.466 251.88 429.169 252.253 428.836 252.569C428.502 252.879 428.124 253.134 427.703 253.333C427.282 253.533 426.812 253.685 426.294 253.791C424.807 254.094 423.516 253.86 422.422 253.089C421.325 252.311 420.615 251.127 420.291 249.538C419.97 247.963 420.147 246.599 420.821 245.446C421.505 244.305 422.573 243.586 424.025 243.29C425.491 242.991 426.746 243.222 427.789 243.982C428.823 244.738 429.508 245.937 429.843 247.58L429.944 248.125ZM427.197 246.724C426.626 245.562 425.727 245.106 424.5 245.356C424.22 245.413 423.967 245.511 423.739 245.65C423.51 245.782 423.31 245.95 423.139 246.156C422.973 246.353 422.842 246.579 422.744 246.833C422.647 247.087 422.59 247.365 422.573 247.667L427.197 246.724ZM438.689 240.588L441.001 240.117L443.032 250.08L440.72 250.552L440.507 249.508C439.74 250.588 438.811 251.239 437.72 251.462C436.342 251.742 435.102 251.477 433.999 250.665C432.898 249.831 432.193 248.653 431.883 247.133C431.579 245.639 431.771 244.303 432.462 243.126C433.152 241.948 434.169 241.222 435.513 240.948C436.672 240.712 437.809 240.977 438.924 241.744L438.689 240.588ZM434.236 246.653C434.43 247.608 434.845 248.333 435.478 248.829C436.127 249.329 436.851 249.497 437.648 249.335C438.501 249.161 439.13 248.727 439.535 248.034C439.937 247.32 440.042 246.495 439.852 245.561C439.661 244.627 439.242 243.91 438.593 243.41C437.947 242.924 437.204 242.766 436.365 242.937C435.574 243.098 434.974 243.533 434.565 244.242C434.163 244.956 434.054 245.76 434.236 246.653ZM443.906 239.525L446.217 239.054L446.405 239.974C447.047 239.012 447.873 238.428 448.882 238.223C450.041 237.986 451.019 238.167 451.816 238.764C452.502 239.271 452.988 240.227 453.274 241.632L454.519 247.738L452.207 248.21L451.073 242.645C450.873 241.663 450.598 241.012 450.249 240.693C449.905 240.365 449.382 240.273 448.679 240.416C447.916 240.572 447.425 240.935 447.207 241.505C446.995 242.066 447.015 242.968 447.268 244.209L448.249 249.017L445.937 249.488L443.906 239.525Z" fill="white"/>
<rect width="160.76" height="81.9097" transform="translate(30.1547 272.262) rotate(0.14061)" fill="black"/>
<path d="M42.9899 305.129L42.956 318.962L47.6956 318.973L47.6899 321.26L40.518 321.242L40.5575 305.123L42.9899 305.129ZM51.922 311.102L51.8971 321.27L49.5482 321.264L49.5731 311.096L51.922 311.102ZM49.2286 306.867C49.2296 306.456 49.3801 306.102 49.6801 305.803C49.9801 305.505 50.3389 305.356 50.7564 305.357C51.181 305.358 51.5425 305.509 51.8411 305.809C52.1396 306.102 52.2884 306.46 52.2873 306.885C52.2863 307.31 52.1358 307.671 51.8358 307.97C51.5427 308.268 51.1839 308.417 50.7594 308.416C50.3348 308.415 49.9733 308.264 49.6748 307.964C49.3762 307.664 49.2275 307.299 49.2286 306.867ZM57.2645 303.651L57.2433 312.294C58.1852 311.322 59.2513 310.838 60.4414 310.841C61.8124 310.844 62.9526 311.358 63.8618 312.384C64.771 313.402 65.2238 314.67 65.22 316.187C65.2162 317.753 64.7537 319.046 63.8325 320.067C62.9183 321.081 61.7652 321.586 60.3733 321.583C59.1971 321.58 58.1473 321.125 57.2238 320.218L57.2212 321.283L54.8723 321.277L54.9156 303.645L57.2645 303.651ZM62.8187 316.286C62.8211 315.311 62.5586 314.517 62.0311 313.903C61.4968 313.276 60.8259 312.961 60.0186 312.959C59.1556 312.957 58.4519 313.258 57.9076 313.862C57.3702 314.459 57.1004 315.238 57.098 316.199C57.0956 317.187 57.3581 317.977 57.8856 318.57C58.413 319.177 59.1083 319.481 59.9713 319.484C60.7856 319.486 61.4614 319.185 61.9988 318.58C62.5431 317.969 62.8164 317.204 62.8187 316.286ZM67.717 311.14L70.0659 311.146L70.0637 312.055C70.4963 311.603 70.8799 311.294 71.2143 311.128C71.5558 310.955 71.9597 310.869 72.426 310.87C73.0454 310.872 73.6921 311.075 74.3662 311.48L73.2857 313.628C72.841 313.307 72.4065 313.146 71.9819 313.145C70.7013 313.142 70.0587 314.108 70.0539 316.042L70.041 321.314L67.6921 321.309L67.717 311.14ZM83.0632 311.178L85.4225 311.184L85.3975 321.352L83.0382 321.346L83.0408 320.281C82.0712 321.184 81.0296 321.634 79.9161 321.631C78.5102 321.627 77.3492 321.117 76.433 320.098C75.5238 319.059 75.0711 317.763 75.075 316.211C75.0787 314.687 75.5377 313.418 76.4519 312.404C77.3661 311.39 78.5087 310.885 79.8798 310.888C81.0629 310.891 82.1231 311.381 83.0603 312.358L83.0632 311.178ZM77.476 316.217C77.4737 317.192 77.7327 317.986 78.2532 318.599C78.7875 319.22 79.4619 319.531 80.2762 319.533C81.1461 319.536 81.8498 319.238 82.3872 318.641C82.9246 318.023 83.1944 317.237 83.1968 316.283C83.1991 315.33 82.9331 314.543 82.3987 313.922C81.8643 313.315 81.1691 313.011 80.3131 313.009C79.5057 313.007 78.8299 313.311 78.2855 313.922C77.7481 314.541 77.4783 315.305 77.476 316.217ZM88.3873 311.191L90.7362 311.197L90.734 312.105C91.1666 311.654 91.5501 311.345 91.8846 311.179C92.2261 311.006 92.6299 310.92 93.0962 310.921C93.7157 310.922 94.3624 311.126 95.0365 311.531L93.956 313.679C93.5113 313.358 93.0767 313.197 92.6522 313.196C91.3716 313.193 90.729 314.158 90.7242 316.093L90.7113 321.365L88.3624 321.359L88.3873 311.191ZM100.508 319.5L95.956 311.21L98.6807 311.216L101.777 317.07L104.694 311.231L107.346 311.238L99.2059 326.919L96.523 326.912L100.508 319.5Z" fill="white"/>
<path d="M120.392 330.542L126.59 319.867L114.247 319.837L120.392 330.542ZM119.407 296.331L119.347 320.918L121.485 320.924L121.545 296.337L119.407 296.331Z" fill="white"/>
<path d="M137.493 303.67L139.663 304.51C138.9 306.325 138.363 308.001 138.053 309.538C137.898 310.317 137.781 311.138 137.703 312.001C137.624 312.857 137.583 313.793 137.581 314.809C137.578 315.832 137.614 316.775 137.689 317.639C137.763 318.495 137.876 319.313 138.027 320.093C138.323 321.625 138.851 323.3 139.612 325.118L137.439 325.948C135.929 322.764 135.18 319.049 135.19 314.803C135.201 310.558 135.968 306.847 137.493 303.67ZM145.452 314.954L145.436 321.499L143.004 321.493L143.043 305.375L145.799 305.382C147.149 305.385 148.169 305.481 148.857 305.671C149.553 305.861 150.164 306.217 150.692 306.74C151.615 307.647 152.075 308.79 152.072 310.168C152.068 311.643 151.571 312.811 150.581 313.672C149.591 314.532 148.257 314.961 146.58 314.957L145.452 314.954ZM145.458 312.699L146.366 312.701C148.6 312.707 149.719 311.85 149.723 310.131C149.727 308.467 148.578 307.633 146.274 307.627L145.47 307.625L145.458 312.699ZM156.998 314.982L156.982 321.528L154.55 321.522L154.589 305.403L157.345 305.41C158.696 305.413 159.715 305.51 160.403 305.699C161.099 305.889 161.711 306.245 162.238 306.769C163.162 307.676 163.622 308.818 163.618 310.196C163.615 311.672 163.118 312.84 162.127 313.7C161.137 314.561 159.803 314.989 158.126 314.985L156.998 314.982ZM157.004 312.727L157.912 312.729C160.146 312.735 161.265 311.878 161.269 310.159C161.273 308.496 160.124 307.661 157.82 307.656L157.016 307.654L157.004 312.727ZM168.568 305.437L168.534 319.27L173.273 319.281L173.268 321.568L166.096 321.55L166.135 305.431L168.568 305.437ZM177.255 326.046L175.086 325.205C175.856 323.391 176.392 321.718 176.695 320.188C177.012 318.657 177.173 316.897 177.178 314.906C177.183 312.93 177.031 311.172 176.721 309.633C176.419 308.094 175.891 306.416 175.136 304.598L177.31 303.768C178.819 306.952 179.569 310.667 179.558 314.912C179.548 319.158 178.78 322.869 177.255 326.046Z" fill="white"/>
<path d="M760.557 514.03L763.504 611.5" stroke="black" stroke-width="2.13802"/>
<path d="M799.846 613.707L839.942 850.221" stroke="black" stroke-width="2.13802"/>
<path d="M81.7471 353.115L782.685 354.752" stroke="black" stroke-width="2.13802"/>
<path d="M193.237 536.609L191.589 261.427L179.608 165.672" stroke="black" stroke-width="2.13802"/>
<path d="M135.632 261.172L338.495 237.711L465.684 211.413L594.724 200.196" stroke="black" stroke-width="2.13802"/>
<path d="M329.248 196.333L335.803 353.454" stroke="black" stroke-width="2.13802"/>
<path d="M323.712 353.726L327.312 513.937L316 680.5" stroke="black" stroke-width="2.13802"/>
<path d="M265.183 676.382L343.947 682.173L416.122 663.916L468.988 661.216L696.195 610.744L867.895 613.69" stroke="black" stroke-width="2.13802"/>
<path d="M194.239 513.903L810.469 514.42" stroke="black" stroke-width="2.13802"/>
<path d="M868.455 705.922L680.24 741.907" stroke="black" stroke-width="2.13802"/>
<rect width="70" height="17" transform="translate(418.658 505.837) rotate(-0.480105)" fill="black"/>
<path d="M420.321 509.152L422.893 515.595L425.465 508.639L428.041 515.551L430.662 509.065L432.246 509.052L428.011 519.373L425.467 512.541L422.931 519.422L418.736 509.165L420.321 509.152ZM438.042 515.956L433.67 515.993C433.712 516.494 433.878 516.891 434.169 517.185C434.459 517.475 434.83 517.618 435.281 517.614C435.632 517.611 435.921 517.525 436.15 517.356C436.374 517.188 436.628 516.876 436.912 516.423L438.108 517.077C437.927 517.392 437.735 517.663 437.532 517.89C437.329 518.113 437.112 518.298 436.879 518.447C436.646 518.59 436.395 518.697 436.124 518.766C435.853 518.835 435.559 518.871 435.241 518.874C434.331 518.881 433.598 518.595 433.042 518.015C432.486 517.431 432.204 516.652 432.195 515.68C432.187 514.715 432.448 513.932 432.978 513.33C433.511 512.737 434.223 512.437 435.112 512.429C436.01 512.422 436.722 512.702 437.249 513.269C437.772 513.833 438.037 514.618 438.046 515.624L438.042 515.956ZM436.586 514.816C436.383 514.066 435.906 513.694 435.154 513.7C434.983 513.702 434.823 513.73 434.673 513.786C434.523 513.837 434.386 513.914 434.261 514.015C434.141 514.112 434.037 514.23 433.951 514.368C433.864 514.507 433.799 514.664 433.754 514.84L436.586 514.816ZM443.115 513.571L441.955 514.201C441.768 513.827 441.539 513.641 441.267 513.643C441.138 513.644 441.028 513.689 440.937 513.777C440.845 513.861 440.8 513.97 440.801 514.104C440.803 514.338 441.077 514.567 441.622 514.792C442.372 515.108 442.877 515.4 443.139 515.669C443.4 515.939 443.532 516.303 443.536 516.762C443.541 517.351 443.328 517.845 442.897 518.246C442.478 518.625 441.971 518.817 441.373 518.822C440.35 518.831 439.622 518.338 439.187 517.344L440.385 516.776C440.555 517.067 440.684 517.252 440.772 517.33C440.945 517.487 441.15 517.565 441.388 517.563C441.864 517.559 442.1 517.34 442.097 516.906C442.094 516.655 441.909 516.423 441.539 516.209C441.397 516.139 441.254 516.071 441.112 516.006C440.969 515.94 440.825 515.872 440.678 515.803C440.267 515.606 439.977 515.408 439.808 515.209C439.593 514.956 439.484 514.629 439.481 514.228C439.476 513.698 439.654 513.258 440.015 512.908C440.383 512.558 440.833 512.381 441.363 512.377C442.144 512.37 442.728 512.768 443.115 513.571ZM446.236 513.82L446.276 518.606L444.867 518.618L444.827 513.832L444.226 513.837L444.215 512.522L444.816 512.517L444.797 510.281L446.206 510.269L446.225 512.505L447.321 512.496L447.332 513.811L446.236 513.82ZM448.28 512.488L449.689 512.476L449.694 513.04C449.963 512.754 450.193 512.56 450.384 512.458C450.588 512.352 450.844 512.297 451.153 512.295C451.842 512.289 452.39 512.585 452.795 513.183C453.233 512.578 453.83 512.272 454.586 512.266C455.959 512.254 456.653 513.082 456.667 514.748L456.699 518.518L455.283 518.53L455.255 515.142C455.25 514.557 455.176 514.144 455.031 513.903C454.883 513.658 454.642 513.537 454.308 513.54C453.92 513.543 453.637 513.692 453.46 513.985C453.287 514.279 453.203 514.75 453.209 515.397L453.235 518.548L451.82 518.559L451.791 515.19C451.782 514.104 451.464 513.564 450.838 513.569C450.441 513.572 450.152 513.723 449.971 514.021C449.794 514.319 449.708 514.787 449.714 515.426L449.74 518.577L448.331 518.589L448.28 512.488ZM459.836 512.391L459.887 518.492L458.478 518.504L458.427 512.403L459.836 512.391ZM458.192 509.868C458.19 509.622 458.278 509.408 458.456 509.227C458.634 509.046 458.849 508.954 459.099 508.952C459.354 508.95 459.572 509.038 459.753 509.216C459.934 509.39 460.025 509.604 460.028 509.859C460.03 510.114 459.942 510.331 459.764 510.513C459.59 510.694 459.376 510.785 459.121 510.787C458.866 510.789 458.648 510.701 458.467 510.523C458.286 510.345 458.194 510.127 458.192 509.868ZM461.621 512.376L463.036 512.364L463.041 512.928C463.53 512.435 464.083 512.186 464.701 512.181C465.411 512.175 465.966 512.394 466.367 512.837C466.712 513.215 466.889 513.833 466.896 514.693L466.927 518.433L465.512 518.445L465.483 515.037C465.478 514.436 465.391 514.021 465.222 513.793C465.057 513.56 464.76 513.446 464.33 513.45C463.862 513.454 463.531 513.611 463.338 513.921C463.148 514.228 463.057 514.761 463.063 515.521L463.088 518.465L461.672 518.477L461.621 512.376ZM472.215 513.327L471.055 513.957C470.868 513.583 470.639 513.397 470.368 513.399C470.238 513.4 470.128 513.445 470.037 513.533C469.946 513.618 469.901 513.727 469.902 513.86C469.904 514.094 470.177 514.324 470.722 514.549C471.472 514.864 471.978 515.156 472.239 515.425C472.5 515.695 472.632 516.059 472.636 516.518C472.641 517.107 472.428 517.602 471.997 518.002C471.579 518.381 471.071 518.573 470.474 518.578C469.451 518.587 468.722 518.094 468.288 517.1L469.486 516.532C469.655 516.823 469.784 517.008 469.872 517.086C470.045 517.244 470.25 517.321 470.488 517.319C470.964 517.315 471.2 517.096 471.197 516.662C471.195 516.411 471.009 516.179 470.64 515.965C470.497 515.895 470.355 515.827 470.212 515.762C470.07 515.696 469.925 515.629 469.778 515.559C469.367 515.362 469.078 515.164 468.909 514.965C468.694 514.712 468.584 514.385 468.581 513.984C468.577 513.454 468.755 513.014 469.115 512.664C469.484 512.314 469.933 512.137 470.464 512.133C471.244 512.126 471.828 512.524 472.215 513.327ZM475.337 513.577L475.377 518.362L473.967 518.374L473.927 513.588L473.326 513.593L473.315 512.278L473.916 512.273L473.897 510.037L475.307 510.025L475.325 512.261L476.422 512.252L476.433 513.567L475.337 513.577ZM483.077 515.579L478.705 515.616C478.747 516.116 478.913 516.514 479.203 516.808C479.494 517.098 479.865 517.241 480.316 517.237C480.666 517.234 480.956 517.148 481.184 516.979C481.408 516.81 481.663 516.499 481.947 516.046L483.143 516.7C482.961 517.014 482.77 517.285 482.567 517.512C482.364 517.735 482.146 517.921 481.914 518.069C481.681 518.213 481.429 518.32 481.158 518.389C480.888 518.458 480.594 518.494 480.276 518.496C479.366 518.504 478.633 518.218 478.077 517.638C477.52 517.054 477.238 516.275 477.23 515.302C477.222 514.338 477.483 513.554 478.012 512.953C478.546 512.36 479.258 512.059 480.147 512.052C481.045 512.044 481.757 512.324 482.284 512.892C482.806 513.456 483.072 514.241 483.08 515.247L483.077 515.579ZM481.62 514.439C481.418 513.689 480.941 513.317 480.189 513.323C480.018 513.324 479.857 513.353 479.707 513.408C479.557 513.46 479.42 513.536 479.296 513.637C479.176 513.734 479.072 513.852 478.986 513.991C478.899 514.129 478.834 514.286 478.789 514.462L481.62 514.439ZM484.596 512.184L486.005 512.172L486.009 512.717C486.266 512.443 486.494 512.255 486.694 512.154C486.897 512.047 487.139 511.993 487.419 511.991C487.791 511.988 488.18 512.106 488.587 512.344L487.953 513.64C487.684 513.45 487.422 513.356 487.167 513.358C486.399 513.365 486.02 513.949 486.029 515.109L486.056 518.272L484.647 518.284L484.596 512.184Z" fill="white"/>
<rect width="70" height="17" transform="translate(370.357 343.605) rotate(-0.480105)" fill="black"/>
<path d="M372.02 346.92L374.592 353.362L377.164 346.407L379.741 353.319L382.361 346.833L383.946 346.82L379.71 357.141L377.166 350.309L374.63 357.189L370.435 346.933L372.02 346.92ZM388.642 350.351L390.057 350.339L390.108 356.44L388.693 356.451L388.688 355.813C388.112 356.36 387.49 356.637 386.822 356.642C385.978 356.65 385.278 356.351 384.722 355.746C384.17 355.128 383.89 354.354 383.882 353.422C383.874 352.508 384.141 351.744 384.683 351.129C385.225 350.515 385.907 350.205 386.73 350.198C387.44 350.192 388.079 350.479 388.648 351.059L388.642 350.351ZM385.322 353.41C385.327 353.995 385.488 354.47 385.804 354.834C386.129 355.203 386.535 355.386 387.024 355.382C387.546 355.377 387.966 355.194 388.285 354.832C388.603 354.458 388.76 353.985 388.755 353.413C388.75 352.841 388.586 352.37 388.261 352.001C387.936 351.641 387.517 351.463 387.004 351.467C386.519 351.471 386.116 351.658 385.793 352.028C385.475 352.403 385.318 352.863 385.322 353.41ZM395.39 351.334L394.23 351.964C394.043 351.59 393.814 351.404 393.543 351.406C393.413 351.407 393.303 351.452 393.212 351.54C393.121 351.624 393.076 351.733 393.077 351.867C393.079 352.101 393.352 352.33 393.897 352.555C394.647 352.871 395.153 353.163 395.414 353.432C395.675 353.701 395.808 354.066 395.811 354.525C395.816 355.114 395.603 355.608 395.172 356.009C394.754 356.388 394.246 356.58 393.649 356.585C392.626 356.594 391.897 356.101 391.463 355.106L392.661 354.539C392.83 354.83 392.959 355.015 393.047 355.093C393.22 355.25 393.425 355.328 393.663 355.326C394.139 355.322 394.376 355.103 394.372 354.669C394.37 354.418 394.184 354.186 393.815 353.972C393.672 353.902 393.53 353.834 393.387 353.769C393.245 353.703 393.1 353.635 392.953 353.566C392.542 353.369 392.253 353.171 392.084 352.972C391.869 352.719 391.76 352.392 391.756 351.991C391.752 351.461 391.93 351.021 392.29 350.671C392.659 350.321 393.108 350.144 393.639 350.14C394.419 350.133 395.003 350.531 395.39 351.334ZM397.01 345.802L398.419 345.79L398.461 350.776C398.958 350.321 399.51 350.091 400.115 350.085C400.804 350.08 401.357 350.298 401.774 350.742C402.128 351.127 402.309 351.746 402.316 352.598L402.347 356.337L400.938 356.349L400.908 352.741C400.904 352.252 400.813 351.9 400.636 351.685C400.463 351.465 400.184 351.356 399.8 351.36C399.307 351.364 398.962 351.519 398.764 351.826C398.57 352.136 398.477 352.667 398.483 353.419L398.508 356.369L397.099 356.381L397.01 345.802ZM405.497 350.209L405.548 356.31L404.139 356.322L404.088 350.221L405.497 350.209ZM403.853 347.686C403.851 347.44 403.939 347.226 404.117 347.045C404.295 346.864 404.51 346.773 404.76 346.77C405.015 346.768 405.233 346.856 405.414 347.034C405.595 347.208 405.687 347.423 405.689 347.677C405.691 347.932 405.603 348.15 405.425 348.331C405.251 348.512 405.037 348.604 404.782 348.606C404.527 348.608 404.309 348.52 404.128 348.342C403.947 348.164 403.856 347.945 403.853 347.686ZM407.282 350.195L408.698 350.183L408.702 350.746C409.191 350.254 409.744 350.005 410.362 350C411.072 349.994 411.627 350.212 412.028 350.656C412.373 351.033 412.55 351.652 412.557 352.512L412.588 356.251L411.173 356.263L411.144 352.856C411.139 352.254 411.052 351.84 410.883 351.611C410.718 351.379 410.421 351.264 409.991 351.268C409.523 351.272 409.192 351.429 408.999 351.74C408.809 352.046 408.718 352.58 408.724 353.339L408.749 356.283L407.333 356.295L407.282 350.195ZM420.272 356.043C420.275 356.331 420.266 356.584 420.247 356.801C420.233 357.022 420.209 357.217 420.177 357.384C420.081 357.844 419.888 358.24 419.598 358.573C419.052 359.212 418.297 359.536 417.333 359.544C416.518 359.551 415.846 359.337 415.316 358.903C414.77 358.457 414.451 357.835 414.361 357.038L415.777 357.026C415.834 357.326 415.925 357.557 416.052 357.719C416.347 358.097 416.775 358.283 417.334 358.278C418.366 358.27 418.876 357.633 418.866 356.368L418.859 355.516C418.304 356.093 417.661 356.384 416.93 356.39C416.099 356.397 415.416 356.102 414.881 355.505C414.341 354.9 414.068 354.14 414.06 353.226C414.053 352.336 414.295 351.579 414.786 350.952C415.315 350.288 416.018 349.952 416.895 349.945C417.663 349.938 418.305 350.219 418.819 350.787L418.813 350.098L420.222 350.086L420.272 356.043ZM418.895 353.16C418.89 352.567 418.728 352.095 418.407 351.742C418.083 351.382 417.67 351.204 417.169 351.208C416.634 351.212 416.214 351.414 415.909 351.814C415.632 352.171 415.496 352.631 415.5 353.195C415.505 353.75 415.649 354.204 415.932 354.557C416.24 354.943 416.663 355.133 417.202 355.129C417.74 355.124 418.165 354.924 418.474 354.529C418.76 354.172 418.9 353.716 418.895 353.16ZM423.465 351.374L423.506 356.16L422.096 356.171L422.056 351.386L421.455 351.391L421.444 350.076L422.045 350.071L422.026 347.835L423.436 347.823L423.454 350.059L424.551 350.05L424.562 351.365L423.465 351.374ZM425.334 353.05C425.326 352.169 425.635 351.417 426.261 350.793C426.886 350.17 427.652 349.855 428.558 349.847C429.468 349.839 430.243 350.144 430.883 350.761C431.515 351.378 431.834 352.139 431.842 353.046C431.849 353.96 431.541 354.729 430.915 355.352C430.286 355.971 429.51 356.285 428.587 356.292C427.672 356.3 426.903 355.993 426.28 355.372C425.657 354.759 425.341 353.985 425.334 353.05ZM426.774 353.063C426.78 353.673 426.946 354.154 427.275 354.506C427.612 354.862 428.054 355.038 428.601 355.033C429.152 355.029 429.591 354.848 429.918 354.49C430.245 354.132 430.406 353.657 430.401 353.064C430.396 352.471 430.227 351.998 429.895 351.646C429.557 351.29 429.115 351.114 428.568 351.119C428.03 351.123 427.595 351.306 427.264 351.668C426.933 352.03 426.77 352.495 426.774 353.063ZM433.313 349.976L434.729 349.965L434.733 350.528C435.222 350.036 435.775 349.787 436.393 349.781C437.103 349.776 437.658 349.994 438.059 350.438C438.404 350.815 438.581 351.434 438.588 352.294L438.619 356.033L437.204 356.045L437.175 352.638C437.17 352.036 437.083 351.621 436.914 351.393C436.75 351.161 436.452 351.046 436.022 351.05C435.554 351.054 435.224 351.211 435.03 351.522C434.84 351.828 434.749 352.361 434.755 353.121L434.78 356.065L433.364 356.077L433.313 349.976Z" fill="white"/>
<rect width="27" height="17" transform="translate(812.174 641.86) rotate(80.5975)" fill="black"/>
<path d="M803.651 645.925L799.776 646.567L799.538 645.127L809.079 643.547L809.349 645.178C809.482 645.978 809.526 646.59 809.482 647.017C809.439 647.447 809.289 647.844 809.032 648.209C808.587 648.845 807.957 649.231 807.141 649.366C806.268 649.511 805.527 649.333 804.92 648.832C804.312 648.332 803.926 647.585 803.761 646.593L803.651 645.925ZM804.986 645.704L805.075 646.242C805.294 647.564 805.912 648.141 806.93 647.973C807.914 647.81 808.294 647.046 808.068 645.683L807.989 645.207L804.986 645.704ZM804.162 656.412L803.448 652.098C802.96 652.217 802.593 652.443 802.347 652.776C802.106 653.108 802.022 653.496 802.096 653.941C802.153 654.287 802.283 654.56 802.485 654.759C802.687 654.954 803.034 655.157 803.526 655.368L803.065 656.65C802.726 656.52 802.429 656.373 802.173 656.208C801.921 656.042 801.704 655.856 801.522 655.649C801.343 655.441 801.199 655.209 801.089 654.952C800.978 654.695 800.897 654.411 800.846 654.097C800.697 653.199 800.866 652.431 801.353 651.791C801.843 651.151 802.569 650.752 803.529 650.593C804.48 650.435 805.294 650.571 805.971 651.001C806.64 651.436 807.047 652.093 807.192 652.97C807.339 653.856 807.173 654.603 806.693 655.212C806.218 655.815 805.483 656.199 804.491 656.364L804.162 656.412ZM805.063 654.796C805.772 654.479 806.066 653.95 805.943 653.209C805.915 653.04 805.862 652.886 805.784 652.746C805.71 652.606 805.613 652.483 805.494 652.375C805.379 652.272 805.247 652.188 805.096 652.124C804.946 652.06 804.781 652.019 804.6 652.003L805.063 654.796ZM808.268 662.113L806.42 662.418C806.755 662.037 806.974 661.709 807.076 661.434C807.184 661.162 807.21 660.859 807.154 660.526C807.068 660.002 806.812 659.598 806.388 659.313C805.964 659.027 805.476 658.93 804.924 659.022C804.36 659.115 803.924 659.359 803.617 659.753C803.31 660.15 803.2 660.611 803.287 661.134C803.342 661.468 803.463 661.751 803.65 661.982C803.831 662.206 804.151 662.451 804.61 662.718L802.774 663.022C802.388 662.506 802.149 661.966 802.055 661.402C801.901 660.471 802.073 659.642 802.571 658.916C803.072 658.19 803.772 657.752 804.671 657.604C805.569 657.455 806.379 657.647 807.102 658.179C807.825 658.711 808.263 659.438 808.416 660.361C808.514 660.954 808.465 661.538 808.268 662.113ZM813.454 664.409L807.089 665.463L809.36 667.1L809.669 668.966L806.709 666.771L803.682 670.154L803.383 668.35L805.594 665.939L805.334 665.754L803.017 666.137L802.787 664.747L813.224 663.019L813.454 664.409Z" fill="white"/>
<rect width="25" height="17" transform="translate(736.194 721.938) rotate(-10.2435)" fill="black"/>
<path d="M740.384 730.4L741.083 734.265L739.646 734.524L737.927 725.007L739.554 724.713C740.351 724.569 740.963 724.516 741.39 724.553C741.821 724.59 742.22 724.734 742.588 724.986C743.231 725.421 743.627 726.046 743.774 726.859C743.931 727.731 743.764 728.474 743.273 729.089C742.781 729.704 742.04 730.101 741.05 730.28L740.384 730.4ZM740.144 729.069L740.68 728.972C741.999 728.733 742.567 728.107 742.383 727.092C742.206 726.109 741.437 725.741 740.077 725.987L739.602 726.073L740.144 729.069ZM746.501 727.086L747.586 733.09L746.199 733.34L745.114 727.337L746.501 727.086ZM744.453 724.878C744.409 724.636 744.46 724.41 744.604 724.201C744.749 723.993 744.945 723.866 745.191 723.822C745.442 723.776 745.672 723.826 745.88 723.971C746.088 724.111 746.215 724.307 746.26 724.558C746.305 724.808 746.256 725.038 746.111 725.247C745.97 725.455 745.775 725.581 745.524 725.627C745.273 725.672 745.044 725.622 744.835 725.477C744.626 725.333 744.499 725.133 744.453 724.878ZM748.257 726.768L749.65 726.517L749.751 727.071C750.149 726.503 750.652 726.164 751.26 726.054C751.958 725.928 752.543 726.049 753.012 726.418C753.417 726.731 753.696 727.311 753.849 728.158L754.514 731.838L753.121 732.089L752.515 728.736C752.408 728.144 752.252 727.75 752.047 727.554C751.845 727.353 751.532 727.291 751.109 727.367C750.649 727.45 750.349 727.661 750.211 728C750.076 728.334 750.077 728.875 750.212 729.623L750.735 732.52L749.342 732.772L748.257 726.768ZM761.254 727.857L756.952 728.634C757.078 729.121 757.309 729.484 757.646 729.725C757.981 729.961 758.371 730.039 758.815 729.959C759.16 729.897 759.43 729.763 759.627 729.558C759.819 729.353 760.017 729.004 760.22 728.508L761.509 728.95C761.384 729.291 761.241 729.591 761.08 729.849C760.918 730.103 760.735 730.323 760.531 730.508C760.326 730.69 760.096 730.837 759.84 730.951C759.585 731.065 759.301 731.151 758.989 731.207C758.093 731.369 757.322 731.211 756.676 730.734C756.029 730.253 755.619 729.533 755.446 728.576C755.274 727.626 755.398 726.81 755.818 726.128C756.243 725.453 756.894 725.036 757.769 724.878C758.652 724.718 759.402 724.873 760.017 725.343C760.628 725.81 761.023 726.539 761.202 727.529L761.254 727.857ZM759.626 726.98C759.299 726.275 758.766 725.99 758.026 726.123C757.857 726.154 757.704 726.209 757.566 726.289C757.427 726.365 757.304 726.464 757.199 726.585C757.097 726.701 757.015 726.834 756.953 726.986C756.891 727.137 756.854 727.303 756.84 727.484L759.626 726.98Z" fill="white"/>
<rect width="64" height="17" transform="translate(491.743 647.169) rotate(-12.7201)" fill="black"/>
<path d="M494.07 650.056L497.95 655.807L498.989 648.464L502.972 654.674L504.158 647.779L505.704 647.43L503.753 658.414L499.818 652.278L498.799 659.539L492.525 650.405L494.07 650.056ZM512.832 652.949L508.567 653.912C508.714 654.392 508.96 654.745 509.307 654.971C509.652 655.193 510.045 655.254 510.485 655.155C510.827 655.077 511.092 654.932 511.279 654.719C511.462 654.506 511.645 654.148 511.826 653.645L513.133 654.03C513.023 654.376 512.893 654.682 512.743 654.947C512.592 655.208 512.419 655.435 512.223 655.629C512.026 655.819 511.803 655.977 511.553 656.102C511.303 656.227 511.023 656.324 510.713 656.394C509.825 656.594 509.048 656.47 508.382 656.021C507.714 655.568 507.273 654.867 507.059 653.918C506.847 652.977 506.936 652.157 507.325 651.456C507.721 650.763 508.353 650.319 509.221 650.123C510.096 649.925 510.852 650.048 511.487 650.491C512.117 650.931 512.543 651.642 512.765 652.624L512.832 652.949ZM511.166 652.143C510.809 651.453 510.264 651.191 509.531 651.357C509.364 651.394 509.213 651.456 509.079 651.542C508.943 651.624 508.825 651.728 508.725 651.853C508.628 651.974 508.552 652.111 508.497 652.264C508.442 652.418 508.411 652.586 508.405 652.767L511.166 652.143ZM516.346 653.78L512.576 649.539L514.17 649.179L516.763 652.19L517.69 648.385L519.242 648.035L516.575 658.294L515.004 658.649L516.346 653.78ZM520.571 643.143L521.713 648.202C522.134 647.508 522.693 647.082 523.39 646.925C524.192 646.744 524.928 646.892 525.597 647.371C526.264 647.845 526.699 648.526 526.899 649.414C527.106 650.33 527.008 651.149 526.606 651.869C526.206 652.584 525.599 653.034 524.785 653.217C524.096 653.373 523.421 653.247 522.76 652.84L522.901 653.463L521.526 653.773L519.196 643.453L520.571 643.143ZM525.508 649.792C525.379 649.222 525.119 648.793 524.729 648.504C524.332 648.208 523.898 648.114 523.425 648.22C522.92 648.334 522.549 648.604 522.311 649.03C522.077 649.452 522.023 649.943 522.15 650.505C522.28 651.084 522.539 651.511 522.927 651.787C523.317 652.072 523.764 652.157 524.269 652.043C524.746 651.936 525.101 651.669 525.334 651.244C525.571 650.814 525.629 650.33 525.508 649.792ZM528.067 649.125C527.873 648.265 528.015 647.465 528.494 646.723C528.973 645.981 529.655 645.511 530.538 645.311C531.426 645.111 532.249 645.244 533.005 645.711C533.753 646.18 534.226 646.857 534.426 647.741C534.627 648.633 534.489 649.45 534.01 650.191C533.526 650.93 532.833 651.401 531.933 651.604C531.041 651.805 530.225 651.668 529.484 651.193C528.745 650.727 528.273 650.037 528.067 649.125ZM529.477 648.832C529.612 649.427 529.877 649.861 530.273 650.136C530.678 650.413 531.147 650.491 531.68 650.37C532.218 650.249 532.609 649.979 532.852 649.56C533.096 649.141 533.153 648.642 533.022 648.064C532.891 647.485 532.626 647.059 532.226 646.786C531.821 646.509 531.352 646.431 530.818 646.551C530.293 646.67 529.907 646.941 529.66 647.365C529.413 647.789 529.352 648.278 529.477 648.832ZM538.9 644.663L537.901 645.524C537.639 645.198 537.375 645.065 537.11 645.125C536.984 645.153 536.886 645.22 536.816 645.326C536.744 645.428 536.723 645.544 536.753 645.674C536.804 645.902 537.12 646.069 537.7 646.173C538.5 646.322 539.056 646.501 539.369 646.708C539.681 646.916 539.888 647.244 539.989 647.692C540.118 648.266 540.015 648.795 539.679 649.278C539.35 649.737 538.895 650.032 538.312 650.164C537.314 650.389 536.498 650.062 535.862 649.182L536.913 648.374C537.14 648.622 537.305 648.775 537.408 648.833C537.61 648.95 537.827 648.983 538.059 648.93C538.524 648.825 538.708 648.561 538.612 648.138C538.557 647.893 538.327 647.706 537.92 647.575C537.766 647.537 537.612 647.501 537.459 647.467C537.306 647.433 537.15 647.397 536.992 647.36C536.549 647.255 536.224 647.123 536.017 646.964C535.753 646.763 535.577 646.466 535.488 646.075C535.372 645.558 535.452 645.09 535.73 644.672C536.017 644.252 536.418 643.984 536.936 643.867C537.697 643.695 538.352 643.96 538.9 644.663ZM543.984 643.515L542.984 644.377C542.722 644.051 542.459 643.918 542.194 643.977C542.068 644.006 541.969 644.073 541.899 644.179C541.828 644.28 541.807 644.396 541.836 644.527C541.888 644.755 542.204 644.921 542.784 645.026C543.584 645.175 544.14 645.353 544.452 645.561C544.764 645.769 544.971 646.097 545.072 646.545C545.202 647.119 545.099 647.647 544.762 648.13C544.434 648.589 543.978 648.885 543.396 649.016C542.398 649.242 541.581 648.914 540.946 648.035L541.996 647.226C542.223 647.475 542.389 647.628 542.492 647.686C542.694 647.803 542.911 647.835 543.143 647.783C543.607 647.678 543.792 647.414 543.696 646.99C543.641 646.746 543.41 646.558 543.004 646.427C542.85 646.389 542.696 646.353 542.543 646.319C542.39 646.285 542.234 646.25 542.076 646.213C541.632 646.107 541.307 645.975 541.1 645.817C540.836 645.615 540.66 645.319 540.572 644.928C540.455 644.41 540.536 643.943 540.814 643.525C541.1 643.105 541.502 642.836 542.019 642.72C542.781 642.548 543.436 642.813 543.984 643.515ZM551.545 644.21L547.28 645.173C547.427 645.654 547.673 646.007 548.02 646.232C548.365 646.454 548.758 646.515 549.198 646.416C549.54 646.339 549.805 646.193 549.992 645.98C550.175 645.767 550.358 645.409 550.539 644.906L551.846 645.292C551.736 645.638 551.606 645.943 551.456 646.208C551.305 646.469 551.132 646.697 550.936 646.891C550.739 647.081 550.516 647.238 550.266 647.363C550.016 647.488 549.736 647.585 549.426 647.655C548.538 647.856 547.761 647.731 547.095 647.283C546.427 646.83 545.986 646.128 545.772 645.179C545.56 644.238 545.649 643.418 546.039 642.718C546.434 642.025 547.066 641.58 547.934 641.385C548.809 641.187 549.565 641.31 550.2 641.753C550.83 642.193 551.256 642.903 551.478 643.885L551.545 644.21ZM549.879 643.405C549.522 642.715 548.977 642.452 548.244 642.618C548.077 642.656 547.926 642.718 547.792 642.804C547.656 642.886 547.538 642.989 547.438 643.115C547.341 643.235 547.265 643.372 547.21 643.526C547.155 643.679 547.124 643.847 547.118 644.028L549.879 643.405ZM554.126 641.509L555.18 646.177L553.805 646.487L552.751 641.819L552.165 641.951L551.875 640.668L552.462 640.536L551.969 638.355L553.344 638.044L553.837 640.225L554.906 639.984L555.195 641.267L554.126 641.509Z" fill="white"/>
<rect width="50" height="17" transform="translate(240.03 238.439) rotate(-7.1943)" fill="black"/>
<path d="M246.56 242.352L243.216 242.774L243.508 245.08L246.733 244.673L246.905 246.034L243.679 246.441L244.256 251.009L242.808 251.191L241.597 241.596L246.388 240.991L246.56 242.352ZM248.231 247.388C248.121 246.514 248.339 245.731 248.888 245.039C249.436 244.346 250.159 243.944 251.058 243.83C251.962 243.716 252.767 243.928 253.475 244.466C254.174 245.005 254.58 245.724 254.694 246.623C254.808 247.53 254.592 248.33 254.043 249.022C253.491 249.71 252.756 250.112 251.841 250.228C250.933 250.342 250.134 250.128 249.442 249.584C248.752 249.048 248.348 248.316 248.231 247.388ZM249.663 247.232C249.74 247.837 249.962 248.295 250.329 248.607C250.706 248.921 251.165 249.044 251.708 248.976C252.255 248.907 252.67 248.675 252.953 248.282C253.235 247.888 253.34 247.398 253.265 246.809C253.191 246.221 252.968 245.771 252.596 245.461C252.22 245.146 251.76 245.023 251.218 245.092C250.683 245.159 250.273 245.392 249.986 245.79C249.7 246.188 249.592 246.669 249.663 247.232ZM257.195 243.226L257.633 246.7C257.76 247.702 258.219 248.154 259.01 248.054C259.801 247.954 260.134 247.403 260.007 246.4L259.569 242.926L260.967 242.75L261.409 246.255C261.47 246.74 261.463 247.166 261.387 247.533C261.311 247.862 261.146 248.172 260.892 248.46C260.472 248.93 259.897 249.211 259.168 249.303C258.443 249.395 257.818 249.265 257.294 248.915C256.972 248.698 256.731 248.44 256.571 248.141C256.42 247.874 256.309 247.463 256.239 246.907L255.796 243.403L257.195 243.226ZM262.732 242.527L264.136 242.35L264.207 242.909C264.634 242.363 265.155 242.051 265.768 241.973C266.472 241.884 267.049 242.037 267.499 242.43C267.886 242.765 268.134 243.358 268.241 244.212L268.71 247.922L267.305 248.099L266.878 244.718C266.803 244.122 266.668 243.72 266.474 243.513C266.283 243.302 265.974 243.223 265.547 243.277C265.083 243.335 264.773 243.53 264.617 243.861C264.465 244.188 264.436 244.728 264.532 245.482L264.9 248.403L263.496 248.58L262.732 242.527ZM271.323 242.768L271.923 247.516L270.524 247.693L269.925 242.945L269.328 243.02L269.164 241.715L269.76 241.64L269.48 239.421L270.878 239.245L271.158 241.463L272.246 241.326L272.411 242.631L271.323 242.768ZM277.771 240.629L279.175 240.451L279.939 246.504L278.535 246.682L278.455 246.048C277.947 246.659 277.361 247.006 276.699 247.09C275.862 247.196 275.132 246.981 274.508 246.445C273.888 245.896 273.519 245.16 273.402 244.236C273.288 243.329 273.464 242.538 273.93 241.865C274.397 241.191 275.038 240.803 275.854 240.7C276.558 240.611 277.227 240.822 277.859 241.331L277.771 240.629ZM274.832 244.055C274.905 244.635 275.12 245.088 275.477 245.413C275.842 245.742 276.267 245.876 276.752 245.814C277.27 245.749 277.666 245.518 277.94 245.121C278.212 244.712 278.313 244.224 278.241 243.657C278.17 243.089 277.951 242.641 277.585 242.313C277.221 241.992 276.784 241.864 276.274 241.929C275.794 241.989 275.415 242.222 275.138 242.628C274.865 243.037 274.763 243.513 274.832 244.055ZM282.338 240.052L283.102 246.105L281.704 246.282L280.94 240.229L282.338 240.052ZM280.411 237.739C280.38 237.494 280.443 237.272 280.598 237.071C280.754 236.87 280.956 236.754 281.205 236.723C281.457 236.691 281.684 236.753 281.885 236.909C282.085 237.06 282.201 237.262 282.233 237.515C282.264 237.768 282.203 237.994 282.047 238.195C281.895 238.395 281.693 238.511 281.441 238.543C281.188 238.575 280.961 238.513 280.761 238.357C280.56 238.202 280.443 237.995 280.411 237.739ZM284.109 239.829L285.514 239.651L285.584 240.211C286.012 239.664 286.532 239.352 287.146 239.275C287.85 239.186 288.427 239.338 288.876 239.732C289.264 240.066 289.511 240.66 289.619 241.513L290.087 245.223L288.683 245.401L288.256 242.02C288.181 241.423 288.046 241.022 287.851 240.815C287.661 240.603 287.352 240.524 286.925 240.578C286.461 240.637 286.151 240.831 285.995 241.163C285.843 241.489 285.814 242.029 285.909 242.783L286.278 245.704L284.873 245.881L284.109 239.829Z" fill="white"/>
<rect width="32" height="17" transform="translate(341.481 307.219) rotate(87.2539)" fill="black"/>
<path d="M337.035 314.067L336.278 312.918C336.651 312.678 336.891 312.456 336.998 312.25C337.122 312.035 337.175 311.763 337.16 311.433C337.14 311.028 337.009 310.698 336.767 310.442C336.529 310.186 336.239 310.066 335.897 310.083C335.426 310.105 335.063 310.474 334.809 311.188L334.461 312.171C334.181 312.97 333.821 313.562 333.38 313.947C332.942 314.332 332.392 314.54 331.729 314.572C330.841 314.614 330.092 314.354 329.484 313.789C328.871 313.221 328.544 312.494 328.502 311.61C328.461 310.772 328.676 310.067 329.146 309.497C329.617 308.935 330.3 308.566 331.194 308.389L331.59 309.85C331.026 309.944 330.64 310.08 330.431 310.257C330.028 310.577 329.841 311.025 329.868 311.601C329.89 312.056 330.06 312.426 330.379 312.711C330.698 312.997 331.091 313.129 331.558 313.106C331.746 313.097 331.916 313.062 332.067 313C332.224 312.943 332.364 312.855 332.487 312.736C332.616 312.621 332.732 312.473 332.836 312.293C332.945 312.112 333.045 311.898 333.138 311.651L333.481 310.7C333.976 309.351 334.762 308.651 335.838 308.599C336.564 308.564 337.184 308.813 337.699 309.344C338.218 309.875 338.497 310.554 338.537 311.38C338.59 312.493 338.089 313.389 337.035 314.067ZM334.991 315.908L335.059 317.322L334.496 317.349C335.008 317.818 335.278 318.361 335.308 318.978C335.342 319.687 335.145 320.25 334.718 320.668C334.355 321.028 333.744 321.229 332.884 321.27L329.149 321.449L329.081 320.035L332.485 319.872C333.085 319.843 333.497 319.74 333.718 319.562C333.944 319.388 334.046 319.087 334.026 318.657C334.003 318.19 333.833 317.866 333.515 317.684C333.201 317.507 332.665 317.437 331.906 317.473L328.965 317.614L328.897 316.2L334.991 315.908ZM332.312 322.796C333.192 322.754 333.955 323.033 334.603 323.633C335.251 324.234 335.596 324.986 335.639 325.891C335.683 326.801 335.409 327.587 334.818 328.251C334.227 328.907 333.478 329.256 332.573 329.299C331.66 329.343 330.879 329.065 330.232 328.465C329.588 327.86 329.244 327.097 329.2 326.175C329.156 325.262 329.433 324.481 330.029 323.834C330.616 323.187 331.377 322.841 332.312 322.796ZM332.356 324.237C331.747 324.266 331.273 324.452 330.934 324.794C330.591 325.145 330.433 325.594 330.459 326.14C330.485 326.691 330.684 327.122 331.054 327.435C331.424 327.747 331.906 327.889 332.498 327.861C333.09 327.832 333.556 327.645 333.895 327.298C334.237 326.947 334.396 326.499 334.369 325.952C334.344 325.414 334.143 324.987 333.769 324.671C333.394 324.354 332.923 324.209 332.356 324.237ZM335.723 331.161L332.321 332.924L336.439 334.451L332.486 336.377L336.041 337.787L336.116 339.364L329.413 336.487L333.254 334.603L329.249 333.077L335.647 329.578L335.723 331.161Z" fill="white"/>
<rect width="32" height="17" transform="translate(334.179 386.017) rotate(87.2539)" fill="black"/>
<path d="M329.733 392.865L328.975 391.716C329.348 391.476 329.589 391.254 329.696 391.048C329.819 390.833 329.873 390.561 329.857 390.231C329.838 389.827 329.707 389.496 329.465 389.24C329.227 388.984 328.937 388.864 328.595 388.881C328.123 388.903 327.761 389.272 327.506 389.987L327.159 390.969C326.879 391.768 326.519 392.36 326.077 392.745C325.64 393.13 325.09 393.338 324.427 393.37C323.538 393.413 322.79 393.152 322.182 392.587C321.569 392.019 321.242 391.292 321.199 390.408C321.159 389.57 321.374 388.866 321.844 388.295C322.315 387.733 322.997 387.364 323.892 387.187L324.288 388.648C323.724 388.742 323.337 388.878 323.129 389.055C322.726 389.375 322.538 389.823 322.566 390.399C322.588 390.854 322.758 391.224 323.077 391.51C323.396 391.795 323.789 391.927 324.256 391.905C324.444 391.896 324.613 391.86 324.765 391.799C324.921 391.741 325.061 391.653 325.185 391.534C325.313 391.419 325.43 391.271 325.534 391.091C325.642 390.91 325.743 390.696 325.835 390.449L326.179 389.498C326.674 388.149 327.46 387.449 328.536 387.397C329.262 387.363 329.882 387.611 330.397 388.142C330.915 388.673 331.195 389.352 331.234 390.178C331.288 391.291 330.787 392.187 329.733 392.865ZM327.689 394.706L327.757 396.12L327.194 396.147C327.705 396.616 327.976 397.159 328.006 397.776C328.04 398.485 327.843 399.049 327.416 399.466C327.052 399.826 326.441 400.027 325.582 400.068L321.847 400.248L321.779 398.834L325.183 398.67C325.783 398.642 326.194 398.538 326.416 398.36C326.641 398.186 326.744 397.885 326.723 397.455C326.701 396.988 326.531 396.664 326.213 396.483C325.899 396.305 325.363 396.235 324.603 396.271L321.663 396.412L321.595 394.998L327.689 394.706ZM325.009 401.595C325.889 401.552 326.653 401.831 327.301 402.432C327.948 403.032 328.294 403.785 328.337 404.69C328.381 405.599 328.107 406.385 327.516 407.049C326.924 407.705 326.176 408.054 325.271 408.098C324.358 408.141 323.577 407.863 322.93 407.263C322.286 406.658 321.942 405.895 321.898 404.973C321.854 404.06 322.13 403.28 322.726 402.632C323.314 401.985 324.075 401.639 325.009 401.595ZM325.053 403.035C324.444 403.064 323.97 403.25 323.631 403.592C323.289 403.943 323.13 404.392 323.157 404.938C323.183 405.489 323.381 405.92 323.752 406.233C324.122 406.545 324.603 406.687 325.196 406.659C325.788 406.63 326.254 406.443 326.592 406.097C326.935 405.746 327.093 405.297 327.067 404.751C327.041 404.212 326.841 403.785 326.466 403.469C326.092 403.152 325.621 403.008 325.053 403.035ZM328.421 409.96L325.018 411.722L329.136 413.249L325.184 415.175L328.738 416.585L328.814 418.162L322.11 415.285L325.952 413.402L321.947 411.875L328.345 408.377L328.421 409.96Z" fill="white"/>
<rect width="41" height="17" transform="translate(200.698 367.846) rotate(87.2539)" fill="black"/>
<path d="M196.314 374.559L196.128 370.686L193.807 370.798L193.987 374.558L192.617 374.624L192.437 370.863L189.208 371.018L189.394 374.891L188.024 374.957L187.768 369.626L197.428 369.163L197.684 374.493L196.314 374.559ZM194.197 376.31L194.264 377.718L193.701 377.745C193.998 378.002 194.201 378.224 194.31 378.412C194.424 378.611 194.489 378.865 194.504 379.174C194.537 379.862 194.262 380.421 193.681 380.85C194.303 381.263 194.632 381.847 194.668 382.602C194.734 383.974 193.935 384.7 192.27 384.78L188.504 384.961L188.436 383.547L191.821 383.385C192.405 383.357 192.814 383.266 193.049 383.112C193.289 382.955 193.4 382.709 193.384 382.375C193.365 381.987 193.206 381.711 192.905 381.545C192.605 381.384 192.132 381.319 191.485 381.35L188.338 381.501L188.27 380.087L191.636 379.926C192.721 379.874 193.248 379.535 193.218 378.909C193.199 378.513 193.037 378.23 192.732 378.061C192.427 377.896 191.956 377.828 191.318 377.859L188.17 378.01L188.103 376.602L194.197 376.31ZM185.348 388.467L185.281 387.06L194.691 386.608L194.758 388.016L194.095 388.048C194.676 388.576 194.984 389.192 195.018 389.897C195.058 390.736 194.783 391.441 194.191 392.013C193.605 392.593 192.844 392.905 191.91 392.95C190.996 392.994 190.222 392.757 189.587 392.24C188.956 391.727 188.621 391.057 188.581 390.231C188.547 389.518 188.802 388.866 189.346 388.275L185.348 388.467ZM191.834 391.511C192.418 391.483 192.886 391.302 193.238 390.967C193.594 390.628 193.76 390.215 193.737 389.727C193.712 389.209 193.512 388.799 193.138 388.495C192.764 388.191 192.285 388.053 191.701 388.081C191.13 388.108 190.666 388.292 190.31 388.631C189.963 388.965 189.801 389.391 189.826 389.908C189.849 390.396 190.052 390.79 190.435 391.089C190.817 391.397 191.284 391.538 191.834 391.511ZM195.127 395.699L189.033 395.991L188.965 394.584L195.059 394.291L195.127 395.699ZM197.583 393.957C197.829 393.945 198.046 394.025 198.234 394.195C198.422 394.366 198.522 394.577 198.534 394.827C198.546 395.081 198.467 395.303 198.296 395.49C198.13 395.678 197.919 395.778 197.665 395.79C197.41 395.803 197.189 395.723 197.001 395.553C196.813 395.386 196.713 395.176 196.701 394.921C196.689 394.667 196.768 394.445 196.939 394.258C197.11 394.07 197.324 393.969 197.583 393.957ZM195.212 397.482L195.28 398.89L194.736 398.916C195.019 399.161 195.216 399.382 195.325 399.577C195.44 399.777 195.503 400.016 195.517 400.296C195.534 400.667 195.432 401.061 195.21 401.477L193.89 400.894C194.069 400.618 194.152 400.353 194.14 400.098C194.103 399.331 193.505 398.975 192.346 399.031L189.186 399.182L189.119 397.774L195.212 397.482ZM192.326 407.899L192.116 403.532C191.618 403.593 191.227 403.775 190.945 404.077C190.666 404.379 190.538 404.755 190.56 405.205C190.577 405.556 190.674 405.842 190.852 406.063C191.029 406.28 191.35 406.522 191.815 406.788L191.208 408.009C190.887 407.84 190.609 407.659 190.373 407.465C190.143 407.272 189.949 407.062 189.791 406.835C189.638 406.608 189.522 406.361 189.442 406.093C189.363 405.825 189.315 405.533 189.3 405.216C189.256 404.306 189.513 403.562 190.071 402.984C190.632 402.405 191.399 402.092 192.371 402.046C193.335 401.999 194.127 402.229 194.749 402.734C195.363 403.244 195.692 403.943 195.734 404.832C195.777 405.728 195.526 406.451 194.979 407C194.437 407.544 193.663 407.841 192.658 407.889L192.326 407.899ZM193.408 406.398C194.149 406.166 194.502 405.675 194.466 404.924C194.457 404.753 194.423 404.594 194.361 404.446C194.304 404.298 194.222 404.164 194.116 404.044C194.014 403.928 193.893 403.829 193.751 403.748C193.609 403.667 193.449 403.608 193.272 403.57L193.408 406.398Z" fill="white"/>
<path d="M760.481 611.568L773.38 748.131" stroke="black" stroke-width="2.13802"/>
<rect width="46" height="17" transform="translate(768.194 590.941) rotate(86.909)" fill="black"/>
<path d="M760.122 592.055C761.481 591.981 762.676 592.416 763.705 593.36C764.735 594.3 765.287 595.466 765.362 596.859C765.437 598.235 765.008 599.441 764.077 600.479C763.147 601.52 761.991 602.078 760.611 602.153C759.222 602.228 758.018 601.795 756.997 600.855C755.971 599.911 755.421 598.734 755.345 597.325C755.277 596.078 755.648 594.935 756.458 593.896C757.354 592.752 758.575 592.138 760.122 592.055ZM760.183 593.525C759.115 593.583 758.257 593.989 757.608 594.743C756.958 595.494 756.659 596.336 756.709 597.27C756.764 598.283 757.16 599.119 757.898 599.777C758.645 600.435 759.527 600.737 760.544 600.682C761.574 600.626 762.419 600.236 763.078 599.51C763.741 598.789 764.046 597.923 763.991 596.914C763.937 595.909 763.541 595.08 762.803 594.425C762.074 593.77 761.2 593.47 760.183 593.525ZM761.971 603.647L762.047 605.055L761.503 605.084C761.788 605.328 761.986 605.547 762.097 605.742C762.212 605.941 762.277 606.18 762.293 606.459C762.313 606.83 762.213 607.224 761.993 607.642L760.669 607.067C760.847 606.79 760.929 606.524 760.915 606.27C760.873 605.503 760.273 605.15 759.114 605.213L755.955 605.384L755.879 603.976L761.971 603.647ZM762.468 612.842L762.544 614.255L756.452 614.584L756.376 613.171L757.014 613.136C756.44 612.586 756.136 611.977 756.1 611.31C756.054 610.468 756.321 609.755 756.9 609.172C757.492 608.592 758.253 608.277 759.183 608.227C760.096 608.177 760.871 608.409 761.51 608.923C762.148 609.436 762.489 610.103 762.534 610.925C762.572 611.634 762.314 612.285 761.761 612.88L762.468 612.842ZM759.26 609.665C758.676 609.697 758.21 609.879 757.86 610.211C757.506 610.552 757.342 610.967 757.368 611.455C757.397 611.976 757.599 612.387 757.975 612.689C758.363 612.99 758.843 613.125 759.414 613.094C759.985 613.063 760.448 612.877 760.802 612.536C761.147 612.196 761.306 611.769 761.278 611.256C761.252 610.772 761.047 610.378 760.662 610.072C760.274 609.771 759.806 609.636 759.26 609.665ZM762.64 616.031L762.716 617.445L762.154 617.475C762.668 617.941 762.942 618.482 762.975 619.1C763.013 619.808 762.82 620.373 762.395 620.793C762.034 621.156 761.424 621.36 760.565 621.406L756.831 621.608L756.755 620.195L760.158 620.011C760.758 619.978 761.168 619.873 761.389 619.693C761.614 619.518 761.714 619.216 761.691 618.786C761.666 618.319 761.494 617.996 761.175 617.817C760.86 617.641 760.323 617.574 759.564 617.615L756.624 617.774L756.548 616.36L762.64 616.031ZM757.39 629.275C757.102 629.29 756.849 629.293 756.631 629.284C756.409 629.28 756.214 629.265 756.046 629.241C755.581 629.165 755.177 628.991 754.832 628.717C754.168 628.2 753.81 627.461 753.758 626.497C753.714 625.684 753.897 625.003 754.307 624.454C754.728 623.888 755.334 623.542 756.126 623.415L756.202 624.829C755.905 624.899 755.679 625.001 755.523 625.135C755.159 625.447 754.992 625.883 755.022 626.442C755.078 627.472 755.738 627.953 757.001 627.884L757.852 627.838C757.25 627.31 756.93 626.682 756.89 625.952C756.846 625.122 757.109 624.426 757.681 623.864C758.261 623.298 759.007 622.99 759.921 622.94C760.809 622.893 761.577 623.1 762.225 623.562C762.913 624.061 763.28 624.748 763.327 625.623C763.369 626.39 763.118 627.044 762.574 627.583L763.262 627.546L763.338 628.954L757.39 629.275ZM760.206 627.768C760.799 627.736 761.263 627.552 761.601 627.216C761.946 626.875 762.105 626.454 762.078 625.954C762.049 625.42 761.829 625.01 761.416 624.723C761.046 624.463 760.58 624.348 760.017 624.378C759.463 624.408 759.016 624.572 758.676 624.871C758.305 625.196 758.134 625.628 758.163 626.166C758.192 626.703 758.411 627.118 758.82 627.41C759.19 627.678 759.652 627.798 760.206 627.768ZM760.356 636.46L760.12 632.094C759.622 632.159 759.232 632.343 758.952 632.647C758.676 632.95 758.55 633.327 758.574 633.777C758.593 634.128 758.692 634.413 758.871 634.633C759.05 634.849 759.372 635.089 759.838 635.353L759.239 636.577C758.917 636.41 758.637 636.231 758.401 636.039C758.169 635.846 757.974 635.637 757.815 635.412C757.661 635.186 757.543 634.939 757.462 634.672C757.38 634.404 757.331 634.112 757.314 633.795C757.265 632.886 757.517 632.141 758.071 631.559C758.63 630.977 759.394 630.659 760.366 630.607C761.329 630.555 762.123 630.78 762.748 631.281C763.365 631.787 763.698 632.485 763.746 633.373C763.794 634.269 763.547 634.993 763.004 635.546C762.465 636.093 761.693 636.394 760.688 636.448L760.356 636.46ZM761.429 634.953C762.169 634.717 762.518 634.223 762.478 633.473C762.469 633.302 762.433 633.142 762.371 632.995C762.312 632.848 762.23 632.714 762.123 632.595C762.021 632.479 761.898 632.381 761.756 632.301C761.614 632.221 761.454 632.162 761.276 632.126L761.429 634.953Z" fill="white"/>
</svg>
